# xmcd
#
# Track frame offsets:
# 150
# 17198
# 26111
# 34384
# 46517
# 71469
# 87624
# 99919
# 112447
# 122846
# 134108
# 146868
# 165556
# 176755
# 193120
#
# Disc length: 2736 seconds
#
#
# Revision: 2
# Processed by: cddbd v1.5.2PL0 Copyright (c) Steve Scherf et al.
# Submitted via: FreeRIP 2.96 
#
DISCID=e40aae0f
DTITLE=Various Artist - Mojo Mag 2005.08: Chess Classics
DYEAR=2005
DGENRE=Blues
TTITLE0=Wade in the Water [Ramsey Lewis Trio, from 'Wade in the Water', 1966]
TTITLE1=Liberation Conversation [Marlena Shaw (born Marlina Burgess), from 'The Spice of Life', 1969]
TTITLE2=Gunslinger [Bo Diddley (born Ellas Otha Bates, aka Ellas McDaniel), from 'Bo Diddley Is a Gunslinger', December 1960]
TTITLE3=Night Beat [Chuck Berry (born Charles Edward Anderson Berry), from 'St. Louis to Liverpool', November 1964]
TTITLE4=I am the Black Gold of the Sun [Rotary Connection (as 'The New Rotary Connection'), from 'Hey, Love', 1971]
TTITLE5=Tom Cat [Muddy Waters (born McKinley Morganfield), from 'Electric Mud', October 1968]
TTITLE6=Spoonful [Howlin' Wolf (born Chester Arthur Burnett), Chess single A-side, 1960]
TTITLE7=Hi-Heel Sneakers [aka 'High Heel Sneekers'] [Tommy Tucker, Checker single A-side, 1964]
TTITLE8=Fattening Frogs for Snakes [Sonny Boy Williamson II (born Alex Miller), Checker single A-side, 1957]
TTITLE9=Voice Your Choice [The Radiants, Chess single A-side, 1964]
TTITLE10=I Surrender [Fontella Bass, Checker single B-side to 'I Can't Rest', 1966]
TTITLE11=Ordinary Joe [Terry Callier (born Terrence Orlando Callier), from 'Occasional Rain', 1972]
TTITLE12=I'd Rather Go Blind [Etta James (born Jamesetta Hawkins), from 'Tell Mama', August 1968]
TTITLE13=I Had a Talk with My Man Last Night [Mitty Collier, from 'Shades of a Genius', 1965]
TTITLE14=You Left the Water Running [Maurice and Mac (Maurice McAlister and McLauren Green), Chess single A-side, May 1968]
EXTD=
EXTT0=
EXTT1=
EXTT2=
EXTT3=
EXTT4=
EXTT5=
EXTT6=
EXTT7=
EXTT8=
EXTT9=
EXTT10=
EXTT11=
EXTT12=
EXTT13=
EXTT14=
PLAYORDER=
